HIERARCHY
ROOT Hips
{
	OFFSET 0.000000 0.000000 0.000000 
	CHANNELS 6 Xposition Yposition Zposition Yrotation Zrotation Xrotation 
	JOINT Lumbar
	{
		OFFSET 0.000000 0.000000 0.000000 
		CHANNELS 3 Zrotation Xrotation Yrotation
		JOINT Neck
		{
			OFFSET 0.000000 0.445665 0.000000 
			CHANNELS 3 Zrotation Xrotation Yrotation
			End Site
			{
				OFFSET 0.000000 0.227535 0.000000 
			}
		}
		JOINT RightShoulder
		{
			OFFSET 0.019635 0.377685 0.194865 
			CHANNELS 3 Zrotation Xrotation Yrotation
			JOINT RightElbow
			{
				OFFSET 0.000000 -0.243375 0.000000 
				CHANNELS 2 Zrotation Yrotation
				JOINT RightWrist
				{
					OFFSET 0.000000 -0.264825 0.000000 
					CHANNELS 2 Zrotation Xrotation
					End Site
					{
						OFFSET 0.006600 -0.176220 0.000990 
					}
				}
			}
		}
		JOINT LeftShoulder
		{
			OFFSET 0.019635 0.377685 -0.194865 
			CHANNELS 3 Zrotation Xrotation Yrotation
			JOINT LeftElbow
			{
				OFFSET 0.000000 -0.243375 0.000000 
				CHANNELS 2 Zrotation Yrotation
				JOINT LeftWrist
				{
					OFFSET 0.000000 -0.264825 0.000000 
					CHANNELS 2 Zrotation Xrotation
					End Site
					{
						OFFSET 0.006600 -0.176220 -0.000990 
					}
				}
			}
		}
	}
	JOINT RightHip
	{
		OFFSET 0.052140 -0.069960 0.075570 
		CHANNELS 3 Zrotation Xrotation Yrotation
		JOINT RightKnee
		{
			OFFSET 0.000000 -0.402270 0.000000 
			CHANNELS 1 Zrotation
			JOINT RightAnkle
			{
				OFFSET 0.000000 -0.404085 0.000000 
				CHANNELS 3 Zrotation Xrotation Yrotation
				End Site
				{
					OFFSET 0.204105 -0.089430 0.008415 
				}
			}
		}
	}
	JOINT LeftHip
	{
		OFFSET 0.052140 -0.069960 -0.075570 
		CHANNELS 3 Zrotation Xrotation Yrotation
		JOINT LeftKnee
		{
			OFFSET 0.000000 -0.402270 0.000000 
			CHANNELS 1 Zrotation
			JOINT LeftAnkle
			{
				OFFSET 0.000000 -0.404085 0.000000 
				CHANNELS 3 Zrotation Xrotation Yrotation
				End Site
				{
					OFFSET 0.204105 -0.089430 -0.008415 
				}
			}
		}
	}
}
MOTION
Frames: 30
Frame Time: 0.02
-0.66819 -0.00405 -0.03251 -123.77101 -25.68237 1.81486 37.73166 0.34931 -0.87916 -11.12897 -12.53293 -0.83079 -23.86773 -11.64942 30.90896 118.61726 103.19471 18.0756 0.78321 -7.7472 10.02632 -37.02229 118.63573 -113.82457 20.88899 -1.74707 18.93802 -3.28774 -1.99358 -17.61132 -6.43194 -3.87352 -2.65698 26.90522 20.40661 -11.98422 -7.91832 -10.40939 -0.31797 0.50571
-0.67301 -0.00569 -0.04445 -121.82556 -25.38518 1.4588 36.73669 0.58217 -1.46706 -10.96437 -12.37967 -0.83079 -24.09787 -11.57687 31.04252 118.7283 102.42535 17.36269 0.67576 -7.42197 10.38397 -37.44678 118.72622 -113.70701 20.4944 -1.9188 18.81134 -1.9675 -2.99055 -17.42586 -6.45617 -3.98795 -2.72601 28.65885 20.41815 -12.38964 -9.67906 -10.45659 -0.1225 0.61493
-0.67672 -0.00795 -0.05644 -119.75908 -25.12275 1.12865 35.68295 0.85172 -2.07489 -10.74396 -12.22902 -0.83079 -24.34049 -11.33499 31.11823 118.77727 101.67832 16.68114 0.51357 -7.02995 10.73236 -37.85839 118.84879 -113.98791 20.20857 -2.21342 18.90146 -0.73537 -4.08987 -17.38409 -6.48087 -4.09929 -2.7948 30.79378 20.12583 -12.72765 -12.00767 -10.4225 0.14758 0.76301
-0.68088 -0.00984 -0.0683 -117.74022 -24.84875 0.80019 34.66725 1.10516 -2.66514 -10.55681 -12.0789 -0.83079 -24.57745 -11.17339 31.21792 118.8527 100.92581 15.99087 0.38064 -6.69183 11.06826 -38.26283 118.95201 -114.05242 19.86318 -2.43671 18.90136 0.51413 -5.12494 -17.27816 -6.50927 -4.21384 -2.86464 32.71179 19.94447 -13.04567 -14.00781 -10.4281 0.39169 0.89814
-0.68527 -0.01208 -0.08059 -115.74731 -24.54973 0.41153 33.59603 1.35809 -3.30047 -10.3384 -11.9202 -0.83079 -24.81964 -10.99504 31.32922 118.93523 100.15141 15.27173 0.22915 -6.25554 11.48202 -38.72621 119.07741 -114.24829 19.54994 -2.72123 18.86158 1.86566 -6.22525 -17.16966 -6.52214 -4.32204 -2.93124 34.81443 19.8727 -13.57801 -16.314 -10.42316 0.60582 1.01544
-0.68893 -0.01375 -0.09201 -113.67375 -24.3148 0.1567 32.63099 1.61932 -3.84175 -10.17047 -11.78022 -0.83079 -25.05099 -10.81243 31.40265 118.9887 99.43117 14.62417 0.10467 -6.00546 11.73029 -39.0618 119.16407 -114.2754 19.2031 -2.90963 18.95919 2.9791 -7.21846 -17.10026 -6.56706 -4.44194 -3.0041 36.62376 19.50555 -13.648 -18.11282 -10.4203 0.89569 1.17656
-0.69094 -0.01375 -0.1011 -111.40636 -24.23577 0.25256 31.95419 1.9038 -4.13509 -10.16281 -11.69491 -0.83079 -25.26006 -10.65906 31.37643 118.97241 98.82533 14.14267 0.05144 -6.31026 11.50235 -39.05318 119.1282 -113.69703 18.69346 -2.79475 19.36408 3.48423 -7.8793 -17.09772 -6.70097 -4.59868 -3.09614 37.51765 18.35838 -12.45591 -18.38948 -10.44541 1.41558 1.47144
-0.69226 -0.01316 -0.10931 -109.06354 -24.22275 0.48459 31.39034 2.1935 -4.32866 -10.20621 -11.62792 -0.83079 -25.45516 -10.50769 31.31558 118.92979 98.27868 13.73647 0.02991 -6.80053 11.11076 -38.91502 119.05328 -112.94488 18.15467 -2.58093 19.90307 3.74739 -8.4309 -17.13025 -6.86698 -4.76648 -3.1941 38.10421 16.93212 -10.80263 -18.13247 -10.47506 2.00255 1.80534
-0.69384 -0.01283 -0.11787 -106.75559 -24.18926 0.66316 30.78881 2.47455 -4.55622 -10.22147 -11.55041 -0.83079 -25.64904 -10.35608 31.27603 118.90235 97.72434 13.3127 0.00501 -7.18982 10.80699 -38.8319 119.00088 -112.30179 17.65944 -2.41786 20.39443 4.10239 -9.04306 -17.1503 -7.0176 -4.92659 -3.28805 38.84065 15.6589 -9.35962 -18.10592 -10.5007 2.53224 2.10621
-0.6956 -0.01255 -0.12662 -104.43801 -24.11869 0.80817 30.12909 2.78339 -4.83353 -10.25616 -11.48218 -0.83079 -25.87546 -10.19576 31.21037 118.85946 97.08977 12.82211 -0.06715 -7.64651 10.44675 -38.76402 118.92944 -111.54534 17.04254 -2.23415 20.83979 4.5298 -9.61803 -17.16098 -7.17117 -5.09781 -3.3875 39.55168 14.26335 -7.90501 -18.14657 -10.53086 3.1747 2.47126
-0.69683 -0.01203 -0.13477 -102.12771 -24.13804 1.05366 29.61616 3.03513 -4.98198 -10.26257 -11.39899 -0.83079 -26.03052 -10.05619 31.19242 118.84297 96.63598 12.48514 -0.03415 -8.00864 10.16479 -38.63446 118.88801 -110.97862 16.66744 -2.06889 21.40661 4.75146 -10.23636 -17.1974 -7.32679 -5.24863 -3.47701 40.23221 13.0616 -6.37395 -17.91773 -10.55487 3.60094 2.71359
-0.69676 -0.01092 -0.14156 -99.82658 -24.41205 1.55539 29.49985 3.12723 -4.80994 -10.18447 -11.26983 -0.83079 -25.99211 -9.97497 31.30777 118.90886 96.67056 12.58115 0.2947 -8.05672 10.14308 -38.35991 118.93784 -110.97806 16.99614 -1.97392 22.3046 4.45181 -11.06086 -17.2977 -7.47505 -5.33953 -3.53659 40.94857 12.45431 -4.67575 -17.03212 -10.55137 3.38062 2.5879
-0.69618 -0.00958 -0.14776 -97.54157 -24.77017 2.15098 29.52475 3.16156 -4.51002 -10.07539 -11.12508 -0.83079 -25.88206 -9.91511 31.47374 119.00197 96.88616 12.82462 0.72604 -8.00484 10.20479 -38.02874 119.01896 -111.17336 17.56376 -1.90131 23.31403 3.95599 -11.92201 -17.42194 -7.62513 -5.40963 -3.5861 41.63456 12.05529 -2.92964 -15.89881 -10.54361 2.94565 2.3405
-0.69583 -0.00837 -0.1542 -95.26903 -25.07452 2.69572 29.47217 3.22269 -4.26071 -9.97664 -10.9875 -0.83079 -25.80488 -9.84533 31.62155 119.08092 97.01392 12.9817 1.10209 -8.0042 10.226 -37.72805 119.08668 -111.27617 18.00179 -1.82096 24.25227 3.55873 -12.7256 -17.53331 -7.77788 -5.48994 -3.64095 42.30307 11.56784 -1.25109 -14.90447 -10.54453 2.63092 2.16186
-0.69549 -0.00705 -0.16075 -92.90994 -25.44573 3.2805 29.47723 3.28197 -4.03752 -9.89499 -10.84992 -0.83079 -25.72671 -9.77649 31.74831 119.16643 97.15934 13.22038 1.51615 -7.98603 10.25351 -37.40387 119.15076 -111.38449 18.52545 -1.72673 25.28097 3.11398 -13.69451 -17.65348 -7.91737 -5.5677 -3.69299 43.09306 11.04257 0.63657 -13.7808 -10.51748 2.22494 1.92915
-0.695 -0.00591 -0.16691 -90.73626 -25.69818 3.80153 29.39739 3.331 -3.73351 -9.77029 -10.70878 -0.83079 -25.63273 -9.71068 31.93054 119.24513 97.32014 13.3267 1.87477 -7.97752 10.28847 -37.11552 119.22889 -111.53427 18.93052 -1.66835 26.14731 2.72382 -14.33372 -17.76167 -8.08399 -5.64537 -3.74818 43.6269 10.65128 2.09447 -12.87409 -10.54713 1.95449 1.77802
-0.69422 -0.00538 -0.17225 -89.06982 -25.58964 4.1299 29.02179 3.36847 -3.21524 -9.52925 -10.55836 -0.83079 -25.52179 -9.64881 32.26089 119.29824 97.3912 13.00031 2.05673 -8.026 10.33627 -36.9509 119.35138 -111.71108 18.92614 -1.70003 26.52509 2.54162 -14.01411 -17.82091 -8.32938 -5.73038 -3.81661 43.45997 10.56384 2.34845 -12.63309 -10.7387 2.13317 1.89551
-0.69329 -0.00505 -0.17721 -87.59061 -25.36065 4.38874 28.56046 3.39709 -2.62488 -9.24672 -10.40545 -0.83079 -25.39594 -9.58896 32.64387 119.34379 97.48566 12.54092 2.1789 -8.086 10.3873 -36.82218 119.48491 -111.92826 18.79814 -1.76768 26.7371 2.42082 -13.36882 -17.86902 -8.60099 -5.81548 -3.88814 43.03768 10.60872 2.16773 -12.62067 -10.98666 2.45107 2.09653
-0.69241 -0.00462 -0.18228 -86.02575 -25.1947 4.67486 28.15517 3.42804 -2.08251 -8.98611 -10.25573 -0.83079 -25.27074 -9.52792 32.99845 119.39287 97.62922 12.16264 2.3273 -8.13553 10.42915 -36.67144 119.60458 -112.15732 18.74298 -1.82221 27.03311 2.26684 -12.89968 -17.92852 -8.85771 -5.89886 -3.95687 42.73472 10.60392 2.18636 -12.50205 -11.20598 2.69032 2.25025
-0.69158 -0.00421 -0.18758 -84.46107 -24.99679 4.98356 27.68216 3.46419 -1.47068 -8.71114 -10.09672 -0.83079 -25.16819 -9.46949 33.37473 119.44211 97.5349 11.70286 2.48329 -8.20238 10.50568 -36.54576 119.76157 -112.27708 18.62806 -1.86576 27.29751 2.12737 -12.315 -17.96187 -9.12736 -5.98868 -4.03118 42.41779 10.56048 2.1963 -12.38345 -11.43787 2.98735 2.43934
-0.69062 -0.00382 -0.19231 -82.94369 -24.83558 5.22623 27.32879 3.48806 -0.98887 -8.45709 -9.95675 -0.83079 -25.01674 -9.4049 33.71635 119.48932 97.92924 11.3786 2.6079 -8.23896 10.51053 -36.37338 119.84439 -112.61702 18.60231 -1.93803 27.58568 1.97582 -11.89058 -18.04708 -9.37594 -6.0653 -4.09468 42.06835 10.62827 2.12426 -12.3234 -11.65701 3.19952 2.576
-0.68941 -0.00344 -0.19564 -81.48316 -24.80631 5.31363 27.31912 3.48112 -0.87726 -8.26763 -9.86917 -0.83079 -24.7267 -9.33121 33.95665 119.52905 99.74493 11.46266 2.65929 -8.17431 10.30991 -36.09186 119.70786 -113.67597 18.87331 -2.10124 27.98989 1.76841 -12.011 -18.27526 -9.56251 -6.10616 -4.12793 41.70385 10.95243 1.89432 -12.36168 -11.82719 3.14726 2.54931
-0.68808 -0.00309 -0.1984 -80.06969 -24.81758 5.3346 27.43358 3.4622 -0.90047 -8.10175 -9.80097 -0.83079 -24.38977 -9.25002 34.15608 119.56763 102.03101 11.68407 2.68021 -8.08241 10.03835 -35.7542 119.49819 -114.92946 19.23121 -2.28811 28.42139 1.5489 -12.29981 -18.5565 -9.72641 -6.13369 -4.15016 41.31328 11.38588 1.60082 -12.45317 -11.98239 3.00518 2.46725
-0.68677 -0.00275 -0.20137 -78.6519 -24.809 5.37891 27.49543 3.44847 -0.86728 -7.92698 -9.72459 -0.83079 -24.07925 -9.16607 34.37244 119.60896 104.05638 11.84406 2.71615 -8.01274 9.80268 -35.42745 119.32982 -116.01633 19.53754 -2.45074 28.83326 1.34115 -12.49617 -18.81517 -9.8991 -6.16697 -4.17728 40.92687 11.78095 1.36458 -12.52713 -12.1447 2.90266 2.40988
-0.6856 -0.00233 -0.20454 -77.16534 -24.80193 5.44981 27.53811 3.43557 -0.81244 -7.74168 -9.64579 -0.83079 -23.74618 -9.10642 34.60812 119.64036 106.302 12.00584 2.74778 -7.90037 9.54985 -35.17534 119.12851 -117.44363 19.89945 -2.67187 29.26967 1.10997 -12.74731 -19.06666 -10.07941 -6.20162 -4.20507 40.56422 12.13515 1.00508 -12.58291 -12.30856 2.80996 2.35726
-0.68411 -0.00207 -0.20715 -75.83484 -24.80337 5.45039 27.65155 3.41811 -0.8338 -7.58616 -9.57625 -0.83079 -23.44972 -8.99662 34.77999 119.69261 108.17371 12.18497 2.7786 -7.87219 9.31825 -34.73921 118.97744 -118.19662 20.15685 -2.77594 29.66391 0.92271 -12.92996 -19.34621 -10.2377 -6.23016 -4.22871 40.14893 12.59611 0.87827 -12.68362 -12.46382 2.67394 2.28061
-0.68186 -0.00223 -0.2084 -74.88879 -24.81491 5.27347 27.92821 3.39202 -1.04913 -7.49332 -9.53119 -0.83079 -23.26246 -8.72926 34.89342 119.79949 109.13329 12.49572 2.84551 -8.06853 9.14333 -33.9321 118.98972 -117.13776 20.20104 -2.55468 29.93271 0.87029 -12.87111 -19.68703 -10.34437 -6.2457 -4.24429 39.59934 13.34613 1.53943 -12.91828 -12.60769 2.43803 2.15015
-0.67927 -0.00253 -0.20912 -74.10417 -24.83488 5.02828 28.27262 3.36163 -1.3338 -7.43278 -9.49413 -0.83079 -23.11531 -8.4147 34.92068 119.9279 109.66251 12.80041 2.90882 -8.35411 8.99659 -32.91678 119.05349 -115.37915 20.12146 -2.21456 30.15929 0.86023 -12.74065 -20.05477 -10.42887 -6.25541 -4.25591 38.99872 14.19509 2.41678 -13.19159 -12.74136 2.16143 1.99723
-0.67676 -0.00277 -0.21008 -73.26708 -24.85391 4.81442 28.58751 3.33256 -1.5762 -7.36623 -9.45096 -0.83079 -22.95089 -8.13655 34.92016 120.04876 110.22625 13.02845 2.95173 -8.60721 8.84857 -31.91785 119.0896 -113.87138 20.03339 -1.92544 30.40763 0.82358 -12.6527 -20.41253 -10.52096 -6.26737 -4.26883 38.4189 14.98446 3.10981 -13.43019 -12.87393 1.90415 1.85478
-0.67456 -0.00302 -0.21102 -72.34182 -24.86207 4.59705 28.90102 3.30568 -1.86858 -7.26237 -9.41879 -0.83079 -22.77694 -7.79858 35.21297 120.16066 111.46066 13.58628 3.0798 -8.82156 8.64614 -31.25435 119.14233 -112.63728 20.21395 -1.64732 30.64628 0.81758 -12.53077 -20.76317 -10.62269 -6.28059 -4.28346 37.84553 15.84002 4.15604 -13.74039 -13.0309 1.64003 1.70917
